<svg xmlns="http://www.w3.org/2000/svg" viewBox="0 0 481.25 182.44"><defs><style>.cls-1{fill:none;stroke:#231815;stroke-width:6px;}.cls-2{fill:#f2f2f2;}</style></defs><title>logo_yoko</title><g id="レイヤー_2" data-name="レイヤー 2"><g id="レイヤー_1-2" data-name="レイヤー 1"><path class="cls-1" d="M25.27,129.36l-6.91,21.92-4.17,1.12,6.91-21.92L3,135.33v-4l34.32-9.2v4Zm6.53-16.92v4L7.32,123v-4Zm4.42-.22-3,.81-1-5.36,3-.81Zm5.23-1.4-3.07.82-1-5.36,3.07-.82Z"/><path class="cls-1" d="M80,107.45l-7.54,10.18v18.63l-3.55,1V122.42L61,133.13l-4.94,1.32,19-25.67Z"/><path class="cls-1" d="M133.32,103.29l-33.41,8.95v-4l33.41-8.95Z"/><path class="cls-1" d="M146.14,82.29l32.74-8.77-19,39.26-4.6,1.23,16.75-34.73-25.92,6.94Zm36.62-9c-2,.53-3.5-.55-3.5-2.47a4.84,4.84,0,0,1,3.5-4.4A2.56,2.56,0,0,1,186.22,69,4.74,4.74,0,0,1,182.76,73.29Zm0-5.09A2.45,2.45,0,0,0,181,70.35a1.28,1.28,0,0,0,1.72,1.21,2.37,2.37,0,0,0,1.68-2.13A1.26,1.26,0,0,0,182.76,68.2Z"/><path class="cls-1" d="M226.83,64l3.84-1v3.93l-5,1.36L215.5,97.4l-4.32,1.16,10.13-29.12-16.66,4.47,1.87,12.17-4.08,1.09L200.57,75l-6,1.61V72.67L200,71.22l-.76-4.93,4.08-1.1.76,4.93,18.68-5V60l4.08-1.09Z"/><path class="cls-1" d="M243.82,63.56l34.66-9.29L259.56,85.69l-5,1.34L270.7,60.29l-26.88,7.2Zm32.35-17.41V50l-31,8.31V54.46Z"/><path class="cls-1" d="M298.44,61.5l-4,1.06v-21l4-1.07ZM320,34.76l4.46-1.2L308.52,72.81,304.11,74Z"/><path class="cls-1" d="M373.33,39l-33.42,9v-4L373.33,35Z"/><path class="cls-1" d="M421,8.83,405,40.67l3.6,5.13-4.7,1.26L393.44,32l4.7-1.26,4.51,6.52L414,14.63l-25.87,6.94V17.63Z"/><path class="cls-1" d="M446.48,10.55l-10.32.12V6.5l10.32-.13Zm20.45-3.61,5.95-1.59L448.54,34.53l-6,1.59Z"/><path class="cls-2" d="M25.27,129.36l-6.91,21.92-4.17,1.12,6.91-21.92L3,135.33v-4l34.32-9.2v4Zm6.53-16.92v4L7.32,123v-4Zm4.42-.22-3,.81-1-5.36,3-.81Zm5.23-1.4-3.07.82-1-5.36,3.07-.82Z"/><path class="cls-2" d="M80,107.45l-7.54,10.18v18.63l-3.55,1V122.42L61,133.13l-4.94,1.32,19-25.67Z"/><path class="cls-2" d="M133.32,103.29l-33.41,8.95v-4l33.41-8.95Z"/><path class="cls-2" d="M146.14,82.29l32.74-8.77-19,39.26-4.6,1.23,16.75-34.73-25.92,6.94Zm36.62-9c-2,.53-3.5-.55-3.5-2.47a4.84,4.84,0,0,1,3.5-4.4A2.56,2.56,0,0,1,186.22,69,4.74,4.74,0,0,1,182.76,73.29Zm0-5.09A2.45,2.45,0,0,0,181,70.35a1.28,1.28,0,0,0,1.72,1.21,2.37,2.37,0,0,0,1.68-2.13A1.26,1.26,0,0,0,182.76,68.2Z"/><path class="cls-2" d="M226.83,64l3.84-1v3.93l-5,1.36L215.5,97.4l-4.32,1.16,10.13-29.12-16.66,4.47,1.87,12.17-4.08,1.09L200.57,75l-6,1.61V72.67L200,71.22l-.76-4.93,4.08-1.1.76,4.93,18.68-5V60l4.08-1.09Z"/><path class="cls-2" d="M243.82,63.56l34.66-9.29L259.56,85.69l-5,1.34L270.7,60.29l-26.88,7.2Zm32.35-17.41V50l-31,8.31V54.46Z"/><path class="cls-2" d="M298.44,61.5l-4,1.06v-21l4-1.07ZM320,34.76l4.46-1.2L308.52,72.81,304.11,74Z"/><path class="cls-2" d="M373.33,39l-33.42,9v-4L373.33,35Z"/><path class="cls-2" d="M421,8.83,405,40.67l3.6,5.13-4.7,1.26L393.44,32l4.7-1.26,4.51,6.52L414,14.63l-25.87,6.94V17.63Z"/><path class="cls-2" d="M446.48,10.55l-10.32.12V6.5l10.32-.13Zm20.45-3.61,5.95-1.59L448.54,34.53l-6,1.59Z"/><path class="cls-1" d="M194.77,139.22v7.34l5.95-1.6v3.8L196.16,150l4.27,7.64-4.08,1.09-1.58-2.84v21.65l-3.8,1,0-18.95L187.66,169l-3.89,1,6.39-18.41-6.24,1.67v-3.79l7.05-1.89v-7.35Zm27.65.32v3.79l-4.85,1.3v26.78l-3.84,1V145.66l-12,3.2v-3.79l12-3.21v-8l3.84-1v8ZM203,154l4-1.07,2.73,7.62-4,1.08Z"/><path class="cls-1" d="M251.69,156.84l18-4.81v4L232.59,166v-4l15.07-4V126.19l4-1.08v12.58l15.51-4.15v4l-15.51,4.15Z"/><path class="cls-1" d="M304.74,124.05l11.85-3.17v3.6l-34.94,9.36v-3.6l11.85-3.18v-9.74l-9.41,2.52v-3.6l30.05-8v3.6l-9.4,2.52Zm-15.61-3.35,1.54,4.77-4,1.07-1.54-4.77Zm-2.78,31.23V135.37l25.54-6.85v16.56Zm22-18.9L289.9,138v2.83l18.44-4.94ZM289.9,147.37l18.44-4.94v-2.78l-18.44,4.94Zm7.39-31.07v9.75l3.65-1v-9.74Zm14.17,3.6-4,1.07,1.63-5.62,4-1.07Z"/><path class="cls-1" d="M364.5,103.62v3.84l-14.21,3.81,13.92,19.79-4.42,1.19-12.57-18-11.14,24.3-4.27,1.15,12.28-26.82-14.35,3.85v-3.84l15.46-4.14V99.63l3.84-1v9.17Zm-19.88,22.66,4.32-1.16,4.28,6.73L348.85,133Z"/><path class="cls-1" d="M387.82,112.83l3.75-1,3.21,9.7-3.69,1-.91-2.64-12.87,7.63V94.19l6.62-1.77V89.34l3.56-1v3.07l6.67-1.78v18l-13.25,3.55v10.41l8.21-4.89Zm2.79-18.65-9.7,2.6v3.69l9.7-2.59Zm-9.7,13.59,9.7-2.6v-3.74l-9.7,2.6Zm33-26.6-3.5,12.66,2.92,4.49v12l-8.25,2.21V109l4.65-1.25v-7.63l-3.17-4.82,2.6-9.33-6.63,1.77V121L399,122V85.17Z"/><path class="cls-2" d="M194.77,139.22v7.34l5.95-1.6v3.8L196.16,150l4.27,7.64-4.08,1.09-1.58-2.84v21.65l-3.8,1,0-18.95L187.66,169l-3.89,1,6.39-18.41-6.24,1.67v-3.79l7.05-1.89v-7.35Zm27.65.32v3.79l-4.85,1.3v26.78l-3.84,1V145.66l-12,3.2v-3.79l12-3.21v-8l3.84-1v8ZM203,154l4-1.07,2.73,7.62-4,1.08Z"/><path class="cls-2" d="M251.69,156.84l18-4.81v4L232.59,166v-4l15.07-4V126.19l4-1.08v12.58l15.51-4.15v4l-15.51,4.15Z"/><path class="cls-2" d="M304.74,124.05l11.85-3.17v3.6l-34.94,9.36v-3.6l11.85-3.18v-9.74l-9.41,2.52v-3.6l30.05-8v3.6l-9.4,2.52Zm-15.61-3.35,1.54,4.77-4,1.07-1.54-4.77Zm-2.78,31.23V135.37l25.54-6.85v16.56Zm22-18.9L289.9,138v2.83l18.44-4.94ZM289.9,147.37l18.44-4.94v-2.78l-18.44,4.94Zm7.39-31.07v9.75l3.65-1v-9.74Zm14.17,3.6-4,1.07,1.63-5.62,4-1.07Z"/><path class="cls-2" d="M364.5,103.62v3.84l-14.21,3.81,13.92,19.79-4.42,1.19-12.57-18-11.14,24.3-4.27,1.15,12.28-26.82-14.35,3.85v-3.84l15.46-4.14V99.63l3.84-1v9.17Zm-19.88,22.66,4.32-1.16,4.28,6.73L348.85,133Z"/><path class="cls-2" d="M387.82,112.83l3.75-1,3.21,9.7-3.69,1-.91-2.64-12.87,7.63V94.19l6.62-1.77V89.34l3.56-1v3.07l6.67-1.78v18l-13.25,3.55v10.41l8.21-4.89Zm2.79-18.65-9.7,2.6v3.69l9.7-2.59Zm-9.7,13.59,9.7-2.6v-3.74l-9.7,2.6Zm33-26.6-3.5,12.66,2.92,4.49v12l-8.25,2.21V109l4.65-1.25v-7.63l-3.17-4.82,2.6-9.33-6.63,1.77V121L399,122V85.17Z"/></g></g></svg>