<svg xmlns="http://www.w3.org/2000/svg" viewBox="0 0 297.25 265.31"><defs><style>.cls-1,.cls-2{fill:none;}.cls-1{stroke:#fff;stroke-width:10px;}.cls-2{stroke:#231815;stroke-width:6px;}.cls-3{fill:#f2f2f2;}</style></defs><title>logo_tate</title><g id="レイヤー_2" data-name="レイヤー 2"><g id="レイヤー_1-2" data-name="レイヤー 1"><path class="cls-1" d="M123.71,68.06,116.79,90l-4.17,1.12,6.91-21.92L101.43,74V70l34.33-9.2v4Zm6.53-16.92v4l-24.49,6.56v-4Zm4.41-.22-3,.81-1-5.36,3-.81Zm5.23-1.4-3.07.82-1-5.36,3.07-.82Z"/><path class="cls-1" d="M178.43,46.15l-7.54,10.18V75l-3.55,1V61.12l-7.87,10.7-4.95,1.33,19-25.67Z"/><path class="cls-1" d="M231.76,42l-33.42,8.95v-4L231.76,38Z"/><path class="cls-1" d="M244.57,21l32.74-8.77-19,39.26-4.61,1.23L270.49,18l-25.92,6.94Zm36.63-9c-2,.53-3.51-.55-3.51-2.47a4.84,4.84,0,0,1,3.51-4.4,2.55,2.55,0,0,1,3.45,2.53A4.75,4.75,0,0,1,281.2,12Zm0-5.09A2.44,2.44,0,0,0,279.47,9a1.28,1.28,0,0,0,1.73,1.22,2.38,2.38,0,0,0,1.68-2.13A1.26,1.26,0,0,0,281.2,6.9Z"/><path class="cls-1" d="M123.71,68.06,116.79,90l-4.17,1.12,6.91-21.92L101.43,74V70l34.33-9.2v4Zm6.53-16.92v4l-24.49,6.56v-4Zm4.41-.22-3,.81-1-5.36,3-.81Zm5.23-1.4-3.07.82-1-5.36,3.07-.82Z"/><path class="cls-1" d="M178.43,46.15l-7.54,10.18V75l-3.55,1V61.12l-7.87,10.7-4.95,1.33,19-25.67Z"/><path class="cls-1" d="M231.76,42l-33.42,8.95v-4L231.76,38Z"/><path class="cls-1" d="M244.57,21l32.74-8.77-19,39.26-4.61,1.23L270.49,18l-25.92,6.94Zm36.63-9c-2,.53-3.51-.55-3.51-2.47a4.84,4.84,0,0,1,3.51-4.4,2.55,2.55,0,0,1,3.45,2.53A4.75,4.75,0,0,1,281.2,12Zm0-5.09A2.44,2.44,0,0,0,279.47,9a1.28,1.28,0,0,0,1.73,1.22,2.38,2.38,0,0,0,1.68-2.13A1.26,1.26,0,0,0,281.2,6.9Z"/><path class="cls-1" d="M123.71,68.06,116.79,90l-4.17,1.12,6.91-21.92L101.43,74V70l34.33-9.2v4Zm6.53-16.92v4l-24.49,6.56v-4Zm4.41-.22-3,.81-1-5.36,3-.81Zm5.23-1.4-3.07.82-1-5.36,3.07-.82Z"/><path class="cls-1" d="M178.43,46.15l-7.54,10.18V75l-3.55,1V61.12l-7.87,10.7-4.95,1.33,19-25.67Z"/><path class="cls-1" d="M231.76,42l-33.42,8.95v-4L231.76,38Z"/><path class="cls-1" d="M244.57,21l32.74-8.77-19,39.26-4.61,1.23L270.49,18l-25.92,6.94Zm36.63-9c-2,.53-3.51-.55-3.51-2.47a4.84,4.84,0,0,1,3.51-4.4,2.55,2.55,0,0,1,3.45,2.53A4.75,4.75,0,0,1,281.2,12Zm0-5.09A2.44,2.44,0,0,0,279.47,9a1.28,1.28,0,0,0,1.73,1.22,2.38,2.38,0,0,0,1.68-2.13A1.26,1.26,0,0,0,281.2,6.9Z"/><path class="cls-1" d="M37.26,156.5l3.84-1v3.94l-5,1.35L25.93,189.87,21.61,191l10.13-29.11-16.66,4.46L17,178.55l-4.08,1.09L11,167.47l-6,1.61v-3.94l5.42-1.45-.76-4.93,4.08-1.09.77,4.93,18.67-5v-5.13l4.08-1.1Z"/><path class="cls-1" d="M54.25,156l34.66-9.29L70,178.16l-5,1.34,16.13-26.74L54.25,160ZM86.6,138.62v3.84l-31,8.31v-3.84Z"/><path class="cls-1" d="M108.87,154l-4,1.07V134l4-1.07Zm21.51-26.74,4.46-1.2L119,165.28l-4.42,1.19Z"/><path class="cls-1" d="M183.76,131.46l-33.41,8.95v-4l33.41-9Z"/><path class="cls-1" d="M231.42,101.31l-16,31.83,3.6,5.14-4.71,1.26-10.46-15.06,4.7-1.26,4.51,6.52,11.38-22.63L198.59,114V110.1Z"/><path class="cls-1" d="M256.91,103l-10.32.13V99l10.32-.12Zm20.45-3.61,5.95-1.59L259,127l-6,1.59Z"/><path class="cls-1" d="M37.26,156.5l3.84-1v3.94l-5,1.35L25.93,189.87,21.61,191l10.13-29.11-16.66,4.46L17,178.55l-4.08,1.09L11,167.47l-6,1.61v-3.94l5.42-1.45-.76-4.93,4.08-1.09.77,4.93,18.67-5v-5.13l4.08-1.1Z"/><path class="cls-1" d="M54.25,156l34.66-9.29L70,178.16l-5,1.34,16.13-26.74L54.25,160ZM86.6,138.62v3.84l-31,8.31v-3.84Z"/><path class="cls-1" d="M108.87,154l-4,1.07V134l4-1.07Zm21.51-26.74,4.46-1.2L119,165.28l-4.42,1.19Z"/><path class="cls-1" d="M183.76,131.46l-33.41,8.95v-4l33.41-9Z"/><path class="cls-1" d="M231.42,101.31l-16,31.83,3.6,5.14-4.71,1.26-10.46-15.06,4.7-1.26,4.51,6.52,11.38-22.63L198.59,114V110.1Z"/><path class="cls-1" d="M256.91,103l-10.32.13V99l10.32-.12Zm20.45-3.61,5.95-1.59L259,127l-6,1.59Z"/><path class="cls-1" d="M37.26,156.5l3.84-1v3.94l-5,1.35L25.93,189.87,21.61,191l10.13-29.11-16.66,4.46L17,178.55l-4.08,1.09L11,167.47l-6,1.61v-3.94l5.42-1.45-.76-4.93,4.08-1.09.77,4.93,18.67-5v-5.13l4.08-1.1Z"/><path class="cls-1" d="M54.25,156l34.66-9.29L70,178.16l-5,1.34,16.13-26.74L54.25,160ZM86.6,138.62v3.84l-31,8.31v-3.84Z"/><path class="cls-1" d="M108.87,154l-4,1.07V134l4-1.07Zm21.51-26.74,4.46-1.2L119,165.28l-4.42,1.19Z"/><path class="cls-1" d="M183.76,131.46l-33.41,8.95v-4l33.41-9Z"/><path class="cls-1" d="M231.42,101.31l-16,31.83,3.6,5.14-4.71,1.26-10.46-15.06,4.7-1.26,4.51,6.52,11.38-22.63L198.59,114V110.1Z"/><path class="cls-1" d="M256.91,103l-10.32.13V99l10.32-.12Zm20.45-3.61,5.95-1.59L259,127l-6,1.59Z"/><path class="cls-1" d="M62.7,219.47v7.35l6-1.6V229l-4.56,1.22,4.27,7.64L64.28,239l-1.58-2.84v21.65l-3.79,1,0-18.94-3.27,9.37-3.89,1,6.39-18.42-6.24,1.67v-3.79l7.06-1.89v-7.34Zm27.65.32v3.79l-4.85,1.3v26.79l-3.84,1V225.91l-12,3.2v-3.79l12-3.2v-8l3.84-1v8ZM70.91,234.26l4-1.06,2.74,7.62-4,1.08Z"/><path class="cls-1" d="M119.63,237.1l18-4.81v4l-37.06,9.93v-4l15.07-4V206.45l4-1.08v12.57l15.5-4.15v4L119.63,222Z"/><path class="cls-1" d="M172.67,204.31l11.85-3.18v3.6l-34.94,9.37v-3.6l11.85-3.18v-9.75L152,200.1v-3.61l30.05-8.05V192l-9.41,2.53ZM157.07,201l1.53,4.78-4,1.06L153.08,202Zm-2.79,31.23V215.62l25.54-6.84v16.56Zm22-18.9-18.44,4.94v2.83l18.44-4.94Zm-18.44,14.35,18.44-4.94v-2.78l-18.44,4.94Zm7.4-31.07v9.74l3.65-1v-9.74Zm14.16,3.6-4,1.06L177,195.6l4-1.07Z"/><path class="cls-1" d="M232.43,183.88v3.84l-14.21,3.81,13.92,19.79-4.42,1.18-12.57-17.94L204,218.86,199.74,220,212,193.19,197.67,197v-3.84l15.46-4.14v-9.17l3.84-1V188Zm-19.87,22.65,4.32-1.15,4.27,6.73-4.37,1.17Z"/><path class="cls-1" d="M255.75,193.09l3.75-1,3.22,9.7-3.7,1-.91-2.63-12.87,7.62V174.45l6.63-1.78V169.6l3.55-.95v3.07l6.67-1.79v18l-13.25,3.55V202l8.21-4.89Zm2.79-18.65-9.7,2.59v3.7l9.7-2.6ZM248.84,188l9.7-2.6v-3.75l-9.7,2.6Zm33-26.6-3.5,12.65,2.93,4.5v12L273,192.79v-3.5l4.66-1.25V180.4l-3.17-4.81,2.59-9.34L270.44,168v33.22l-3.55.95V165.43Z"/><path class="cls-1" d="M62.7,219.47v7.35l6-1.6V229l-4.56,1.22,4.27,7.64L64.28,239l-1.58-2.84v21.65l-3.79,1,0-18.94-3.27,9.37-3.89,1,6.39-18.42-6.24,1.67v-3.79l7.06-1.89v-7.34Zm27.65.32v3.79l-4.85,1.3v26.79l-3.84,1V225.91l-12,3.2v-3.79l12-3.2v-8l3.84-1v8ZM70.91,234.26l4-1.06,2.74,7.62-4,1.08Z"/><path class="cls-1" d="M119.63,237.1l18-4.81v4l-37.06,9.93v-4l15.07-4V206.45l4-1.08v12.57l15.5-4.15v4L119.63,222Z"/><path class="cls-1" d="M172.67,204.31l11.85-3.18v3.6l-34.94,9.37v-3.6l11.85-3.18v-9.75L152,200.1v-3.61l30.05-8.05V192l-9.41,2.53ZM157.07,201l1.53,4.78-4,1.06L153.08,202Zm-2.79,31.23V215.62l25.54-6.84v16.56Zm22-18.9-18.44,4.94v2.83l18.44-4.94Zm-18.44,14.35,18.44-4.94v-2.78l-18.44,4.94Zm7.4-31.07v9.74l3.65-1v-9.74Zm14.16,3.6-4,1.06L177,195.6l4-1.07Z"/><path class="cls-1" d="M232.43,183.88v3.84l-14.21,3.81,13.92,19.79-4.42,1.18-12.57-17.94L204,218.86,199.74,220,212,193.19,197.67,197v-3.84l15.46-4.14v-9.17l3.84-1V188Zm-19.87,22.65,4.32-1.15,4.27,6.73-4.37,1.17Z"/><path class="cls-1" d="M255.75,193.09l3.75-1,3.22,9.7-3.7,1-.91-2.63-12.87,7.62V174.45l6.63-1.78V169.6l3.55-.95v3.07l6.67-1.79v18l-13.25,3.55V202l8.21-4.89Zm2.79-18.65-9.7,2.59v3.7l9.7-2.6ZM248.84,188l9.7-2.6v-3.75l-9.7,2.6Zm33-26.6-3.5,12.65,2.93,4.5v12L273,192.79v-3.5l4.66-1.25V180.4l-3.17-4.81,2.59-9.34L270.44,168v33.22l-3.55.95V165.43Z"/><path class="cls-1" d="M62.7,219.47v7.35l6-1.6V229l-4.56,1.22,4.27,7.64L64.28,239l-1.58-2.84v21.65l-3.79,1,0-18.94-3.27,9.37-3.89,1,6.39-18.42-6.24,1.67v-3.79l7.06-1.89v-7.34Zm27.65.32v3.79l-4.85,1.3v26.79l-3.84,1V225.91l-12,3.2v-3.79l12-3.2v-8l3.84-1v8ZM70.91,234.26l4-1.06,2.74,7.62-4,1.08Z"/><path class="cls-1" d="M119.63,237.1l18-4.81v4l-37.06,9.93v-4l15.07-4V206.45l4-1.08v12.57l15.5-4.15v4L119.63,222Z"/><path class="cls-1" d="M172.67,204.31l11.85-3.18v3.6l-34.94,9.37v-3.6l11.85-3.18v-9.75L152,200.1v-3.61l30.05-8.05V192l-9.41,2.53ZM157.07,201l1.53,4.78-4,1.06L153.08,202Zm-2.79,31.23V215.62l25.54-6.84v16.56Zm22-18.9-18.44,4.94v2.83l18.44-4.94Zm-18.44,14.35,18.44-4.94v-2.78l-18.44,4.94Zm7.4-31.07v9.74l3.65-1v-9.74Zm14.16,3.6-4,1.06L177,195.6l4-1.07Z"/><path class="cls-1" d="M232.43,183.88v3.84l-14.21,3.81,13.92,19.79-4.42,1.18-12.57-17.94L204,218.86,199.74,220,212,193.19,197.67,197v-3.84l15.46-4.14v-9.17l3.84-1V188Zm-19.87,22.65,4.32-1.15,4.27,6.73-4.37,1.17Z"/><path class="cls-1" d="M255.75,193.09l3.75-1,3.22,9.7-3.7,1-.91-2.63-12.87,7.62V174.45l6.63-1.78V169.6l3.55-.95v3.07l6.67-1.79v18l-13.25,3.55V202l8.21-4.89Zm2.79-18.65-9.7,2.59v3.7l9.7-2.6ZM248.84,188l9.7-2.6v-3.75l-9.7,2.6Zm33-26.6-3.5,12.65,2.93,4.5v12L273,192.79v-3.5l4.66-1.25V180.4l-3.17-4.81,2.59-9.34L270.44,168v33.22l-3.55.95V165.43Z"/><path class="cls-2" d="M123.71,68.06,116.79,90l-4.17,1.12,6.91-21.92L101.43,74V70l34.33-9.2v4Zm6.53-16.92v4l-24.49,6.56v-4Zm4.41-.22-3,.81-1-5.36,3-.81Zm5.23-1.4-3.07.82-1-5.36,3.07-.82Z"/><path class="cls-2" d="M178.43,46.15l-7.54,10.18V75l-3.55,1V61.12l-7.87,10.7-4.95,1.33,19-25.67Z"/><path class="cls-2" d="M231.76,42l-33.42,8.95v-4L231.76,38Z"/><path class="cls-2" d="M244.57,21l32.74-8.77-19,39.26-4.61,1.23L270.49,18l-25.92,6.94Zm36.63-9c-2,.53-3.51-.55-3.51-2.47a4.84,4.84,0,0,1,3.51-4.4,2.55,2.55,0,0,1,3.45,2.53A4.75,4.75,0,0,1,281.2,12Zm0-5.09A2.44,2.44,0,0,0,279.47,9a1.28,1.28,0,0,0,1.73,1.22,2.38,2.38,0,0,0,1.68-2.13A1.26,1.26,0,0,0,281.2,6.9Z"/><path class="cls-3" d="M123.71,68.06,116.79,90l-4.17,1.12,6.91-21.92L101.43,74V70l34.33-9.2v4Zm6.53-16.92v4l-24.49,6.56v-4Zm4.41-.22-3,.81-1-5.36,3-.81Zm5.23-1.4-3.07.82-1-5.36,3.07-.82Z"/><path class="cls-3" d="M178.43,46.15l-7.54,10.18V75l-3.55,1V61.12l-7.87,10.7-4.95,1.33,19-25.67Z"/><path class="cls-3" d="M231.76,42l-33.42,8.95v-4L231.76,38Z"/><path class="cls-3" d="M244.57,21l32.74-8.77-19,39.26-4.61,1.23L270.49,18l-25.92,6.94Zm36.63-9c-2,.53-3.51-.55-3.51-2.47a4.84,4.84,0,0,1,3.51-4.4,2.55,2.55,0,0,1,3.45,2.53A4.75,4.75,0,0,1,281.2,12Zm0-5.09A2.44,2.44,0,0,0,279.47,9a1.28,1.28,0,0,0,1.73,1.22,2.38,2.38,0,0,0,1.68-2.13A1.26,1.26,0,0,0,281.2,6.9Z"/><path class="cls-2" d="M37.26,156.5l3.84-1v3.94l-5,1.35L25.93,189.87,21.61,191l10.13-29.11-16.66,4.46L17,178.55l-4.08,1.09L11,167.47l-6,1.61v-3.94l5.42-1.45-.76-4.93,4.08-1.09.77,4.93,18.67-5v-5.13l4.08-1.1Z"/><path class="cls-2" d="M54.25,156l34.66-9.29L70,178.16l-5,1.34,16.13-26.74L54.25,160ZM86.6,138.62v3.84l-31,8.31v-3.84Z"/><path class="cls-2" d="M108.87,154l-4,1.07V134l4-1.07Zm21.51-26.74,4.46-1.2L119,165.28l-4.42,1.19Z"/><path class="cls-2" d="M183.76,131.46l-33.41,8.95v-4l33.41-9Z"/><path class="cls-2" d="M231.42,101.31l-16,31.83,3.6,5.14-4.71,1.26-10.46-15.06,4.7-1.26,4.51,6.52,11.38-22.63L198.59,114V110.1Z"/><path class="cls-2" d="M256.91,103l-10.32.13V99l10.32-.12Zm20.45-3.61,5.95-1.59L259,127l-6,1.59Z"/><path class="cls-3" d="M37.26,156.5l3.84-1v3.94l-5,1.35L25.93,189.87,21.61,191l10.13-29.11-16.66,4.46L17,178.55l-4.08,1.09L11,167.47l-6,1.61v-3.94l5.42-1.45-.76-4.93,4.08-1.09.77,4.93,18.67-5v-5.13l4.08-1.1Z"/><path class="cls-3" d="M54.25,156l34.66-9.29L70,178.16l-5,1.34,16.13-26.74L54.25,160ZM86.6,138.62v3.84l-31,8.31v-3.84Z"/><path class="cls-3" d="M108.87,154l-4,1.07V134l4-1.07Zm21.51-26.74,4.46-1.2L119,165.28l-4.42,1.19Z"/><path class="cls-3" d="M183.76,131.46l-33.41,8.95v-4l33.41-9Z"/><path class="cls-3" d="M231.42,101.31l-16,31.83,3.6,5.14-4.71,1.26-10.46-15.06,4.7-1.26,4.51,6.52,11.38-22.63L198.59,114V110.1Z"/><path class="cls-3" d="M256.91,103l-10.32.13V99l10.32-.12Zm20.45-3.61,5.95-1.59L259,127l-6,1.59Z"/><path class="cls-2" d="M62.7,219.47v7.35l6-1.6V229l-4.56,1.22,4.27,7.64L64.28,239l-1.58-2.84v21.65l-3.79,1,0-18.94-3.27,9.37-3.89,1,6.39-18.42-6.24,1.67v-3.79l7.06-1.89v-7.34Zm27.65.32v3.79l-4.85,1.3v26.79l-3.84,1V225.91l-12,3.2v-3.79l12-3.2v-8l3.84-1v8ZM70.91,234.26l4-1.06,2.74,7.62-4,1.08Z"/><path class="cls-2" d="M119.63,237.1l18-4.81v4l-37.06,9.93v-4l15.07-4V206.45l4-1.08v12.57l15.5-4.15v4L119.63,222Z"/><path class="cls-2" d="M172.67,204.31l11.85-3.18v3.6l-34.94,9.37v-3.6l11.85-3.18v-9.75L152,200.1v-3.61l30.05-8.05V192l-9.41,2.53ZM157.07,201l1.53,4.78-4,1.06L153.08,202Zm-2.79,31.23V215.62l25.54-6.84v16.56Zm22-18.9-18.44,4.94v2.83l18.44-4.94Zm-18.44,14.35,18.44-4.94v-2.78l-18.44,4.94Zm7.4-31.07v9.74l3.65-1v-9.74Zm14.16,3.6-4,1.06L177,195.6l4-1.07Z"/><path class="cls-2" d="M232.43,183.88v3.84l-14.21,3.81,13.92,19.79-4.42,1.18-12.57-17.94L204,218.86,199.74,220,212,193.19,197.67,197v-3.84l15.46-4.14v-9.17l3.84-1V188Zm-19.87,22.65,4.32-1.15,4.27,6.73-4.37,1.17Z"/><path class="cls-2" d="M255.75,193.09l3.75-1,3.22,9.7-3.7,1-.91-2.63-12.87,7.62V174.45l6.63-1.78V169.6l3.55-.95v3.07l6.67-1.79v18l-13.25,3.55V202l8.21-4.89Zm2.79-18.65-9.7,2.59v3.7l9.7-2.6ZM248.84,188l9.7-2.6v-3.75l-9.7,2.6Zm33-26.6-3.5,12.65,2.93,4.5v12L273,192.79v-3.5l4.66-1.25V180.4l-3.17-4.81,2.59-9.34L270.44,168v33.22l-3.55.95V165.43Z"/><path class="cls-3" d="M62.7,219.47v7.35l6-1.6V229l-4.56,1.22,4.27,7.64L64.28,239l-1.58-2.84v21.65l-3.79,1,0-18.94-3.27,9.37-3.89,1,6.39-18.42-6.24,1.67v-3.79l7.06-1.89v-7.34Zm27.65.32v3.79l-4.85,1.3v26.79l-3.84,1V225.91l-12,3.2v-3.79l12-3.2v-8l3.84-1v8ZM70.91,234.26l4-1.06,2.74,7.62-4,1.08Z"/><path class="cls-3" d="M119.63,237.1l18-4.81v4l-37.06,9.93v-4l15.07-4V206.45l4-1.08v12.57l15.5-4.15v4L119.63,222Z"/><path class="cls-3" d="M172.67,204.31l11.85-3.18v3.6l-34.94,9.37v-3.6l11.85-3.18v-9.75L152,200.1v-3.61l30.05-8.05V192l-9.41,2.53ZM157.07,201l1.53,4.78-4,1.06L153.08,202Zm-2.79,31.23V215.62l25.54-6.84v16.56Zm22-18.9-18.44,4.94v2.83l18.44-4.94Zm-18.44,14.35,18.44-4.94v-2.78l-18.44,4.94Zm7.4-31.07v9.74l3.65-1v-9.74Zm14.16,3.6-4,1.06L177,195.6l4-1.07Z"/><path class="cls-3" d="M232.43,183.88v3.84l-14.21,3.81,13.92,19.79-4.42,1.18-12.57-17.94L204,218.86,199.74,220,212,193.19,197.67,197v-3.84l15.46-4.14v-9.17l3.84-1V188Zm-19.87,22.65,4.32-1.15,4.27,6.73-4.37,1.17Z"/><path class="cls-3" d="M255.75,193.09l3.75-1,3.22,9.7-3.7,1-.91-2.63-12.87,7.62V174.45l6.63-1.78V169.6l3.55-.95v3.07l6.67-1.79v18l-13.25,3.55V202l8.21-4.89Zm2.79-18.65-9.7,2.59v3.7l9.7-2.6ZM248.84,188l9.7-2.6v-3.75l-9.7,2.6Zm33-26.6-3.5,12.65,2.93,4.5v12L273,192.79v-3.5l4.66-1.25V180.4l-3.17-4.81,2.59-9.34L270.44,168v33.22l-3.55.95V165.43Z"/></g></g></svg>