<svg xmlns="http://www.w3.org/2000/svg" viewBox="0 0 488.82 188.61"><defs><style>.cls-1,.cls-2{fill:none;}.cls-1{stroke:#fff;stroke-width:10px;}.cls-2{stroke:#231815;stroke-width:6px;}.cls-3{fill:#f2f2f2;}</style></defs><title>logo_yoko</title><g id="レイヤー_2" data-name="レイヤー 2"><g id="レイヤー_1-2" data-name="レイヤー 1"><path class="cls-1" d="M27.27,132.93l-6.91,21.92L16.19,156l6.91-21.91L5,138.9v-4l34.32-9.19v4ZM33.8,116v4L9.32,126.55v-4Zm4.42-.22-3,.81-1-5.36,3-.81Zm5.23-1.41-3.07.83-1-5.36,3.07-.83Z"/><path class="cls-1" d="M82,111,74.46,121.2v18.62l-3.55,1V126L63,136.69,58.09,138l19-25.68Z"/><path class="cls-1" d="M135.32,106.86l-33.41,9v-4l33.41-9Z"/><path class="cls-1" d="M148.14,85.85l32.74-8.77-19,39.26-4.6,1.23,16.75-34.73-25.92,7Zm36.62-9c-2,.53-3.5-.54-3.5-2.46a4.84,4.84,0,0,1,3.5-4.4,2.56,2.56,0,0,1,3.46,2.53A4.74,4.74,0,0,1,184.76,76.85Zm0-5.08A2.44,2.44,0,0,0,183,73.91a1.29,1.29,0,0,0,1.72,1.22A2.38,2.38,0,0,0,186.44,73,1.25,1.25,0,0,0,184.76,71.77Z"/><path class="cls-1" d="M228.83,67.59l3.84-1V70.5l-5,1.35L217.5,101l-4.32,1.15L223.31,73l-16.66,4.46,1.87,12.17-4.08,1.1-1.87-12.18-6,1.61V76.24L202,74.78l-.76-4.93,4.08-1.09.76,4.93,18.68-5V63.55l4.08-1.09Z"/><path class="cls-1" d="M245.82,67.12l34.66-9.29L261.56,89.26l-5,1.33L272.7,63.85l-26.88,7.21Zm32.35-17.41v3.84l-31,8.31V58Z"/><path class="cls-1" d="M300.44,65.06l-4,1.07v-21l4-1.06ZM322,38.32l4.46-1.2L310.52,76.38l-4.41,1.18Z"/><path class="cls-1" d="M375.33,42.55l-33.42,9v-4l33.42-8.95Z"/><path class="cls-1" d="M423,12.4,407,44.24l3.6,5.13-4.7,1.26L395.44,35.58l4.7-1.27,4.51,6.52L416,18.2l-25.87,6.93V21.2Z"/><path class="cls-1" d="M448.48,14.11l-10.32.13V10.06l10.32-.12Zm20.45-3.6,5.95-1.6L450.54,38.09l-6,1.6Z"/><path class="cls-1" d="M27.27,132.93l-6.91,21.92L16.19,156l6.91-21.91L5,138.9v-4l34.32-9.19v4ZM33.8,116v4L9.32,126.55v-4Zm4.42-.22-3,.81-1-5.36,3-.81Zm5.23-1.41-3.07.83-1-5.36,3.07-.83Z"/><path class="cls-1" d="M82,111,74.46,121.2v18.62l-3.55,1V126L63,136.69,58.09,138l19-25.68Z"/><path class="cls-1" d="M135.32,106.86l-33.41,9v-4l33.41-9Z"/><path class="cls-1" d="M148.14,85.85l32.74-8.77-19,39.26-4.6,1.23,16.75-34.73-25.92,7Zm36.62-9c-2,.53-3.5-.54-3.5-2.46a4.84,4.84,0,0,1,3.5-4.4,2.56,2.56,0,0,1,3.46,2.53A4.74,4.74,0,0,1,184.76,76.85Zm0-5.08A2.44,2.44,0,0,0,183,73.91a1.29,1.29,0,0,0,1.72,1.22A2.38,2.38,0,0,0,186.44,73,1.25,1.25,0,0,0,184.76,71.77Z"/><path class="cls-1" d="M228.83,67.59l3.84-1V70.5l-5,1.35L217.5,101l-4.32,1.15L223.31,73l-16.66,4.46,1.87,12.17-4.08,1.1-1.87-12.18-6,1.61V76.24L202,74.78l-.76-4.93,4.08-1.09.76,4.93,18.68-5V63.55l4.08-1.09Z"/><path class="cls-1" d="M245.82,67.12l34.66-9.29L261.56,89.26l-5,1.33L272.7,63.85l-26.88,7.21Zm32.35-17.41v3.84l-31,8.31V58Z"/><path class="cls-1" d="M300.44,65.06l-4,1.07v-21l4-1.06ZM322,38.32l4.46-1.2L310.52,76.38l-4.41,1.18Z"/><path class="cls-1" d="M375.33,42.55l-33.42,9v-4l33.42-8.95Z"/><path class="cls-1" d="M423,12.4,407,44.24l3.6,5.13-4.7,1.26L395.44,35.58l4.7-1.27,4.51,6.52L416,18.2l-25.87,6.93V21.2Z"/><path class="cls-1" d="M448.48,14.11l-10.32.13V10.06l10.32-.12Zm20.45-3.6,5.95-1.6L450.54,38.09l-6,1.6Z"/><path class="cls-1" d="M27.27,132.93l-6.91,21.92L16.19,156l6.91-21.91L5,138.9v-4l34.32-9.19v4ZM33.8,116v4L9.32,126.55v-4Zm4.42-.22-3,.81-1-5.36,3-.81Zm5.23-1.41-3.07.83-1-5.36,3.07-.83Z"/><path class="cls-1" d="M82,111,74.46,121.2v18.62l-3.55,1V126L63,136.69,58.09,138l19-25.68Z"/><path class="cls-1" d="M135.32,106.86l-33.41,9v-4l33.41-9Z"/><path class="cls-1" d="M148.14,85.85l32.74-8.77-19,39.26-4.6,1.23,16.75-34.73-25.92,7Zm36.62-9c-2,.53-3.5-.54-3.5-2.46a4.84,4.84,0,0,1,3.5-4.4,2.56,2.56,0,0,1,3.46,2.53A4.74,4.74,0,0,1,184.76,76.85Zm0-5.08A2.44,2.44,0,0,0,183,73.91a1.29,1.29,0,0,0,1.72,1.22A2.38,2.38,0,0,0,186.44,73,1.25,1.25,0,0,0,184.76,71.77Z"/><path class="cls-1" d="M228.83,67.59l3.84-1V70.5l-5,1.35L217.5,101l-4.32,1.15L223.31,73l-16.66,4.46,1.87,12.17-4.08,1.1-1.87-12.18-6,1.61V76.24L202,74.78l-.76-4.93,4.08-1.09.76,4.93,18.68-5V63.55l4.08-1.09Z"/><path class="cls-1" d="M245.82,67.12l34.66-9.29L261.56,89.26l-5,1.33L272.7,63.85l-26.88,7.21Zm32.35-17.41v3.84l-31,8.31V58Z"/><path class="cls-1" d="M300.44,65.06l-4,1.07v-21l4-1.06ZM322,38.32l4.46-1.2L310.52,76.38l-4.41,1.18Z"/><path class="cls-1" d="M375.33,42.55l-33.42,9v-4l33.42-8.95Z"/><path class="cls-1" d="M423,12.4,407,44.24l3.6,5.13-4.7,1.26L395.44,35.58l4.7-1.27,4.51,6.52L416,18.2l-25.87,6.93V21.2Z"/><path class="cls-1" d="M448.48,14.11l-10.32.13V10.06l10.32-.12Zm20.45-3.6,5.95-1.6L450.54,38.09l-6,1.6Z"/><path class="cls-1" d="M196.77,142.78v7.35l5.95-1.6v3.79l-4.56,1.22,4.27,7.64-4.08,1.1-1.58-2.84v21.65l-3.8,1,0-18.95-3.27,9.38-3.89,1,6.39-18.42-6.24,1.67V153l7.05-1.89V143.8Zm27.65.32v3.79l-4.85,1.3V175l-3.84,1V149.22l-12,3.2v-3.79l12-3.2v-8l3.84-1v8ZM205,157.57l4-1.06,2.73,7.62-4,1.08Z"/><path class="cls-1" d="M253.69,160.41l18-4.81v4l-37.06,9.93v-4l15.07-4V129.76l4-1.08v12.57l15.51-4.15v4l-15.51,4.16Z"/><path class="cls-1" d="M306.74,127.62l11.85-3.18V128l-34.94,9.37v-3.6l11.85-3.18v-9.75l-9.41,2.53v-3.6l30.05-8.06v3.6l-9.4,2.52Zm-15.61-3.36,1.54,4.78-4,1.06-1.54-4.77Zm-2.78,31.23V138.93l25.54-6.84v16.56Zm22-18.9-18.44,4.94v2.83l18.44-4.94ZM291.9,150.94,310.34,146v-2.78l-18.44,4.93Zm7.39-31.07v9.74l3.65-1v-9.75Zm14.17,3.6-4,1.06,1.63-5.62,4-1.07Z"/><path class="cls-1" d="M366.5,107.19V111l-14.21,3.81,13.92,19.79-4.42,1.18-12.57-17.94-11.14,24.3-4.27,1.14,12.28-26.81-14.35,3.84V116.5l15.46-4.14v-9.17l3.84-1v9.17Zm-19.88,22.65,4.32-1.15,4.28,6.72-4.37,1.18Z"/><path class="cls-1" d="M389.82,116.4l3.75-1,3.21,9.7-3.69,1-.91-2.63-12.87,7.62V97.76L385.93,96V92.91l3.56-1V95l6.67-1.79v18.05l-13.25,3.55v10.42l8.21-4.89Zm2.79-18.65-9.7,2.59V104l9.7-2.6Zm-9.7,13.59,9.7-2.6V105l-9.7,2.6Zm33-26.6-3.5,12.65,2.92,4.5v12l-8.25,2.21v-3.5l4.65-1.25v-7.64l-3.17-4.81,2.6-9.34-6.63,1.78v33.22l-3.55,1V88.74Z"/><path class="cls-1" d="M196.77,142.78v7.35l5.95-1.6v3.79l-4.56,1.22,4.27,7.64-4.08,1.1-1.58-2.84v21.65l-3.8,1,0-18.95-3.27,9.38-3.89,1,6.39-18.42-6.24,1.67V153l7.05-1.89V143.8Zm27.65.32v3.79l-4.85,1.3V175l-3.84,1V149.22l-12,3.2v-3.79l12-3.2v-8l3.84-1v8ZM205,157.57l4-1.06,2.73,7.62-4,1.08Z"/><path class="cls-1" d="M253.69,160.41l18-4.81v4l-37.06,9.93v-4l15.07-4V129.76l4-1.08v12.57l15.51-4.15v4l-15.51,4.16Z"/><path class="cls-1" d="M306.74,127.62l11.85-3.18V128l-34.94,9.37v-3.6l11.85-3.18v-9.75l-9.41,2.53v-3.6l30.05-8.06v3.6l-9.4,2.52Zm-15.61-3.36,1.54,4.78-4,1.06-1.54-4.77Zm-2.78,31.23V138.93l25.54-6.84v16.56Zm22-18.9-18.44,4.94v2.83l18.44-4.94ZM291.9,150.94,310.34,146v-2.78l-18.44,4.93Zm7.39-31.07v9.74l3.65-1v-9.75Zm14.17,3.6-4,1.06,1.63-5.62,4-1.07Z"/><path class="cls-1" d="M366.5,107.19V111l-14.21,3.81,13.92,19.79-4.42,1.18-12.57-17.94-11.14,24.3-4.27,1.14,12.28-26.81-14.35,3.84V116.5l15.46-4.14v-9.17l3.84-1v9.17Zm-19.88,22.65,4.32-1.15,4.28,6.72-4.37,1.18Z"/><path class="cls-1" d="M389.82,116.4l3.75-1,3.21,9.7-3.69,1-.91-2.63-12.87,7.62V97.76L385.93,96V92.91l3.56-1V95l6.67-1.79v18.05l-13.25,3.55v10.42l8.21-4.89Zm2.79-18.65-9.7,2.59V104l9.7-2.6Zm-9.7,13.59,9.7-2.6V105l-9.7,2.6Zm33-26.6-3.5,12.65,2.92,4.5v12l-8.25,2.21v-3.5l4.65-1.25v-7.64l-3.17-4.81,2.6-9.34-6.63,1.78v33.22l-3.55,1V88.74Z"/><path class="cls-1" d="M196.77,142.78v7.35l5.95-1.6v3.79l-4.56,1.22,4.27,7.64-4.08,1.1-1.58-2.84v21.65l-3.8,1,0-18.95-3.27,9.38-3.89,1,6.39-18.42-6.24,1.67V153l7.05-1.89V143.8Zm27.65.32v3.79l-4.85,1.3V175l-3.84,1V149.22l-12,3.2v-3.79l12-3.2v-8l3.84-1v8ZM205,157.57l4-1.06,2.73,7.62-4,1.08Z"/><path class="cls-1" d="M253.69,160.41l18-4.81v4l-37.06,9.93v-4l15.07-4V129.76l4-1.08v12.57l15.51-4.15v4l-15.51,4.16Z"/><path class="cls-1" d="M306.74,127.62l11.85-3.18V128l-34.94,9.37v-3.6l11.85-3.18v-9.75l-9.41,2.53v-3.6l30.05-8.06v3.6l-9.4,2.52Zm-15.61-3.36,1.54,4.78-4,1.06-1.54-4.77Zm-2.78,31.23V138.93l25.54-6.84v16.56Zm22-18.9-18.44,4.94v2.83l18.44-4.94ZM291.9,150.94,310.34,146v-2.78l-18.44,4.93Zm7.39-31.07v9.74l3.65-1v-9.75Zm14.17,3.6-4,1.06,1.63-5.62,4-1.07Z"/><path class="cls-1" d="M366.5,107.19V111l-14.21,3.81,13.92,19.79-4.42,1.18-12.57-17.94-11.14,24.3-4.27,1.14,12.28-26.81-14.35,3.84V116.5l15.46-4.14v-9.17l3.84-1v9.17Zm-19.88,22.65,4.32-1.15,4.28,6.72-4.37,1.18Z"/><path class="cls-1" d="M389.82,116.4l3.75-1,3.21,9.7-3.69,1-.91-2.63-12.87,7.62V97.76L385.93,96V92.91l3.56-1V95l6.67-1.79v18.05l-13.25,3.55v10.42l8.21-4.89Zm2.79-18.65-9.7,2.59V104l9.7-2.6Zm-9.7,13.59,9.7-2.6V105l-9.7,2.6Zm33-26.6-3.5,12.65,2.92,4.5v12l-8.25,2.21v-3.5l4.65-1.25v-7.64l-3.17-4.81,2.6-9.34-6.63,1.78v33.22l-3.55,1V88.74Z"/><path class="cls-2" d="M27.27,132.93l-6.91,21.92L16.19,156l6.91-21.91L5,138.9v-4l34.32-9.19v4ZM33.8,116v4L9.32,126.55v-4Zm4.42-.22-3,.81-1-5.36,3-.81Zm5.23-1.41-3.07.83-1-5.36,3.07-.83Z"/><path class="cls-2" d="M82,111,74.46,121.2v18.62l-3.55,1V126L63,136.69,58.09,138l19-25.68Z"/><path class="cls-2" d="M135.32,106.86l-33.41,9v-4l33.41-9Z"/><path class="cls-2" d="M148.14,85.85l32.74-8.77-19,39.26-4.6,1.23,16.75-34.73-25.92,7Zm36.62-9c-2,.53-3.5-.54-3.5-2.46a4.84,4.84,0,0,1,3.5-4.4,2.56,2.56,0,0,1,3.46,2.53A4.74,4.74,0,0,1,184.76,76.85Zm0-5.08A2.44,2.44,0,0,0,183,73.91a1.29,1.29,0,0,0,1.72,1.22A2.38,2.38,0,0,0,186.44,73,1.25,1.25,0,0,0,184.76,71.77Z"/><path class="cls-2" d="M228.83,67.59l3.84-1V70.5l-5,1.35L217.5,101l-4.32,1.15L223.31,73l-16.66,4.46,1.87,12.17-4.08,1.1-1.87-12.18-6,1.61V76.24L202,74.78l-.76-4.93,4.08-1.09.76,4.93,18.68-5V63.55l4.08-1.09Z"/><path class="cls-2" d="M245.82,67.12l34.66-9.29L261.56,89.26l-5,1.33L272.7,63.85l-26.88,7.21Zm32.35-17.41v3.84l-31,8.31V58Z"/><path class="cls-2" d="M300.44,65.06l-4,1.07v-21l4-1.06ZM322,38.32l4.46-1.2L310.52,76.38l-4.41,1.18Z"/><path class="cls-2" d="M375.33,42.55l-33.42,9v-4l33.42-8.95Z"/><path class="cls-2" d="M423,12.4,407,44.24l3.6,5.13-4.7,1.26L395.44,35.58l4.7-1.27,4.51,6.52L416,18.2l-25.87,6.93V21.2Z"/><path class="cls-2" d="M448.48,14.11l-10.32.13V10.06l10.32-.12Zm20.45-3.6,5.95-1.6L450.54,38.09l-6,1.6Z"/><path class="cls-3" d="M27.27,132.93l-6.91,21.92L16.19,156l6.91-21.91L5,138.9v-4l34.32-9.19v4ZM33.8,116v4L9.32,126.55v-4Zm4.42-.22-3,.81-1-5.36,3-.81Zm5.23-1.41-3.07.83-1-5.36,3.07-.83Z"/><path class="cls-3" d="M82,111,74.46,121.2v18.62l-3.55,1V126L63,136.69,58.09,138l19-25.68Z"/><path class="cls-3" d="M135.32,106.86l-33.41,9v-4l33.41-9Z"/><path class="cls-3" d="M148.14,85.85l32.74-8.77-19,39.26-4.6,1.23,16.75-34.73-25.92,7Zm36.62-9c-2,.53-3.5-.54-3.5-2.46a4.84,4.84,0,0,1,3.5-4.4,2.56,2.56,0,0,1,3.46,2.53A4.74,4.74,0,0,1,184.76,76.85Zm0-5.08A2.44,2.44,0,0,0,183,73.91a1.29,1.29,0,0,0,1.72,1.22A2.38,2.38,0,0,0,186.44,73,1.25,1.25,0,0,0,184.76,71.77Z"/><path class="cls-3" d="M228.83,67.59l3.84-1V70.5l-5,1.35L217.5,101l-4.32,1.15L223.31,73l-16.66,4.46,1.87,12.17-4.08,1.1-1.87-12.18-6,1.61V76.24L202,74.78l-.76-4.93,4.08-1.09.76,4.93,18.68-5V63.55l4.08-1.09Z"/><path class="cls-3" d="M245.82,67.12l34.66-9.29L261.56,89.26l-5,1.33L272.7,63.85l-26.88,7.21Zm32.35-17.41v3.84l-31,8.31V58Z"/><path class="cls-3" d="M300.44,65.06l-4,1.07v-21l4-1.06ZM322,38.32l4.46-1.2L310.52,76.38l-4.41,1.18Z"/><path class="cls-3" d="M375.33,42.55l-33.42,9v-4l33.42-8.95Z"/><path class="cls-3" d="M423,12.4,407,44.24l3.6,5.13-4.7,1.26L395.44,35.58l4.7-1.27,4.51,6.52L416,18.2l-25.87,6.93V21.2Z"/><path class="cls-3" d="M448.48,14.11l-10.32.13V10.06l10.32-.12Zm20.45-3.6,5.95-1.6L450.54,38.09l-6,1.6Z"/><path class="cls-2" d="M196.77,142.78v7.35l5.95-1.6v3.79l-4.56,1.22,4.27,7.64-4.08,1.1-1.58-2.84v21.65l-3.8,1,0-18.95-3.27,9.38-3.89,1,6.39-18.42-6.24,1.67V153l7.05-1.89V143.8Zm27.65.32v3.79l-4.85,1.3V175l-3.84,1V149.22l-12,3.2v-3.79l12-3.2v-8l3.84-1v8ZM205,157.57l4-1.06,2.73,7.62-4,1.08Z"/><path class="cls-2" d="M253.69,160.41l18-4.81v4l-37.06,9.93v-4l15.07-4V129.76l4-1.08v12.57l15.51-4.15v4l-15.51,4.16Z"/><path class="cls-2" d="M306.74,127.62l11.85-3.18V128l-34.94,9.37v-3.6l11.85-3.18v-9.75l-9.41,2.53v-3.6l30.05-8.06v3.6l-9.4,2.52Zm-15.61-3.36,1.54,4.78-4,1.06-1.54-4.77Zm-2.78,31.23V138.93l25.54-6.84v16.56Zm22-18.9-18.44,4.94v2.83l18.44-4.94ZM291.9,150.94,310.34,146v-2.78l-18.44,4.93Zm7.39-31.07v9.74l3.65-1v-9.75Zm14.17,3.6-4,1.06,1.63-5.62,4-1.07Z"/><path class="cls-2" d="M366.5,107.19V111l-14.21,3.81,13.92,19.79-4.42,1.18-12.57-17.94-11.14,24.3-4.27,1.14,12.28-26.81-14.35,3.84V116.5l15.46-4.14v-9.17l3.84-1v9.17Zm-19.88,22.65,4.32-1.15,4.28,6.72-4.37,1.18Z"/><path class="cls-2" d="M389.82,116.4l3.75-1,3.21,9.7-3.69,1-.91-2.63-12.87,7.62V97.76L385.93,96V92.91l3.56-1V95l6.67-1.79v18.05l-13.25,3.55v10.42l8.21-4.89Zm2.79-18.65-9.7,2.59V104l9.7-2.6Zm-9.7,13.59,9.7-2.6V105l-9.7,2.6Zm33-26.6-3.5,12.65,2.92,4.5v12l-8.25,2.21v-3.5l4.65-1.25v-7.64l-3.17-4.81,2.6-9.34-6.63,1.78v33.22l-3.55,1V88.74Z"/><path class="cls-3" d="M196.77,142.78v7.35l5.95-1.6v3.79l-4.56,1.22,4.27,7.64-4.08,1.1-1.58-2.84v21.65l-3.8,1,0-18.95-3.27,9.38-3.89,1,6.39-18.42-6.24,1.67V153l7.05-1.89V143.8Zm27.65.32v3.79l-4.85,1.3V175l-3.84,1V149.22l-12,3.2v-3.79l12-3.2v-8l3.84-1v8ZM205,157.57l4-1.06,2.73,7.62-4,1.08Z"/><path class="cls-3" d="M253.69,160.41l18-4.81v4l-37.06,9.93v-4l15.07-4V129.76l4-1.08v12.57l15.51-4.15v4l-15.51,4.16Z"/><path class="cls-3" d="M306.74,127.62l11.85-3.18V128l-34.94,9.37v-3.6l11.85-3.18v-9.75l-9.41,2.53v-3.6l30.05-8.06v3.6l-9.4,2.52Zm-15.61-3.36,1.54,4.78-4,1.06-1.54-4.77Zm-2.78,31.23V138.93l25.54-6.84v16.56Zm22-18.9-18.44,4.94v2.83l18.44-4.94ZM291.9,150.94,310.34,146v-2.78l-18.44,4.93Zm7.39-31.07v9.74l3.65-1v-9.75Zm14.17,3.6-4,1.06,1.63-5.62,4-1.07Z"/><path class="cls-3" d="M366.5,107.19V111l-14.21,3.81,13.92,19.79-4.42,1.18-12.57-17.94-11.14,24.3-4.27,1.14,12.28-26.81-14.35,3.84V116.5l15.46-4.14v-9.17l3.84-1v9.17Zm-19.88,22.65,4.32-1.15,4.28,6.72-4.37,1.18Z"/><path class="cls-3" d="M389.82,116.4l3.75-1,3.21,9.7-3.69,1-.91-2.63-12.87,7.62V97.76L385.93,96V92.91l3.56-1V95l6.67-1.79v18.05l-13.25,3.55v10.42l8.21-4.89Zm2.79-18.65-9.7,2.59V104l9.7-2.6Zm-9.7,13.59,9.7-2.6V105l-9.7,2.6Zm33-26.6-3.5,12.65,2.92,4.5v12l-8.25,2.21v-3.5l4.65-1.25v-7.64l-3.17-4.81,2.6-9.34-6.63,1.78v33.22l-3.55,1V88.74Z"/></g></g></svg>